# xmcd
#
# Track frame offsets: 
#        150
#        22812
#        34262
#        70249
#        97304
#        120413
#
# Disc length: 1963 seconds
#
# Revision: 0
# Processed by: cddbd v1.5.2PL0 Copyright (c) Steve Scherf et al.
# Submitted via: ExactAudioCopy v0.95b3
#
DISCID=4907a906
DTITLE=The Beatles  - Way Beyond Compare - Episode 02 The Quarry Men P
DTITLE=art 2 (April 1960)  FLAC
DYEAR=1900
DGENRE=
TTITLE0=Instrumental #3 (aka - Turn the Switches Off_)
TTITLE1=Cayenne
TTITLE2=Come On People (aka That's An Important Number)
TTITLE3=I Don't Need No Cigarette Boy
TTITLE4=Well Darling
TTITLE5=I Don't Know
EXTD=
EXTT0=
EXTT1=
EXTT2=
EXTT3=
EXTT4=
EXTT5=
PLAYORDER=
